<?xml version="1.0" encoding="utf-8"?>
<!-- Generator: Adobe Illustrator 27.1.1, SVG Export Plug-In . SVG Version: 6.00 Build 0)  -->
<svg version="1.1" id="Layer_1" xmlns="http://www.w3.org/2000/svg" xmlns:xlink="http://www.w3.org/1999/xlink" x="0px" y="0px"
	 viewBox="0 0 242.75 91.78" style="enable-background:new 0 0 242.75 91.78;" xml:space="preserve">
<style type="text/css">
	.st0{fill:#FFFFFF;}
</style>
<g>
	<path class="st0" d="M77.2,7.18c0-0.65-0.87-0.65-0.87-0.65c-6.31,0-30.26,36.28-50.64,58.77c-2.03,2.18-2.54,2.61-4.57,2.61
		c-2.25,0-4.21-0.22-4.21-1.74c0-0.65,0.36-1.31,0.36-1.31C46.8,24.96,55.72,11.39,56.01,10.88c0,0,0-0.22-0.15-0.22
		c-0.22,0-0.44,0.22-0.44,0.22C40.99,23,20.46,31.12,8.85,31.12c-3.34,0-8.85-0.8-8.85-3.27c0-0.87,0.8-2.32,1.67-2.32
		c1.09,0,0.94,2.9,9.21,2.9c16.25,0,41.79-13.5,52.68-28.15C63.7,0.07,63.92,0,64.14,0c0.65,0,1.45,0.58,1.45,1.38
		c0,0.22-0.07,0.51-0.22,0.73C53.33,20.38,39.98,43.75,35.62,49.99c0.07,0,0.73-0.07,1.16-0.51C47.3,37.51,71.68,0.72,81.04,0.72
		c1.23,0,2.68,1.02,2.68,2.47c0,0.36-0.15,0.73-0.29,1.09c-2.1,4.21-10.74,19.37-19.95,34.1c0.36,0,0.51-0.15,0.8-0.58
		c4.21-5.66,27.28-35.99,35.99-35.99c1.31,0,2.9,0.44,2.9,1.81c0,0.29-0.07,0.58-0.22,0.87c-2.18,5.59-29.68,57.54-29.68,77.42
		c0,4.72,1.6,7.69,5.44,7.69c5.95,0,11.68-5.01,13.93-13.86c0.22-0.8,1.02-1.38,1.74-1.38c0.58,0,1.09,0.36,1.09,1.31
		c0,2.83-4.21,16.11-19.66,16.11c-7.69,0-10.59-3.92-10.59-10.16c0-17.49,23.15-53.26,30.4-72.7c0-0.44-0.44-0.73-1.02-0.73
		c-8.63,0-36.35,43.82-48.18,57.54c-1.96,2.25-2.54,2.61-4.57,2.61c-2.25,0-4.21-0.22-4.21-1.74c0-0.65,0.36-1.31,0.36-1.31
		c0-1.02,8.2-11.9,8.27-11.97C71.39,19.37,75.6,10.66,77.12,7.54C77.2,7.4,77.2,7.32,77.2,7.18z"/>
	<path class="st0" d="M106,64.86c-2.32,0-3.7-1.6-3.7-4.5c0-1.89,0.58-4.35,1.96-6.89c0-0.22-0.15-0.36-0.36-0.36
		c-0.15,0-0.29,0.07-0.58,0.36c-1.81,1.81-10.67,10.38-16.4,10.38c-2.76,0-3.99-1.38-3.99-3.63c0-8.63,18.5-29.75,37.29-29.75
		c2.25,0,2.9,0.58,2.9,1.38c0,1.38-2.1,3.19-2.47,3.19c-0.15,0-0.07-2.54-3.48-2.54c-12.62,0-27.06,18.72-27.06,23.8
		c0,0.8,0.36,1.31,1.16,1.31c5.8,0,13.86-8.27,17.2-11.75c2.47-2.68,8.13-9.43,9.87-9.58c0.44-0.07,1.02-0.15,1.67-0.15
		c1.31,0,2.54,0.22,2.54,0.8c0,0.15-0.07,0.22-0.15,0.36c-0.51,0.65-1.96,2.03-3.41,3.63c-3.77,3.99-11.03,11.9-11.03,18.5
		c0,1.89,0.58,2.83,1.6,2.83c2.1,0,6.31-3.85,12.7-11.46c0,0,0.58,0.22,0.58,0.73c0,0.15,0,0.29-0.15,0.51
		C115.72,60.94,109.7,64.86,106,64.86z"/>
	<path class="st0" d="M130.23,41.79c0,1.02,0.15,1.96,0.58,2.76c2.61-0.8,5.3-1.31,7.76-1.31c2.1,0,3.05,0.87,3.05,1.89
		c0,1.74-2.61,4.14-6.39,4.14c-2.39,0-4.35-0.87-5.73-2.25c-4.5,2.25-7.04,6.31-7.04,9.43c0,2.68,1.81,4.79,5.8,4.79
		c4.35,0,8.63-2.54,11.75-5.37c1.45-1.38,2.83-3.12,4.5-5.08c0,0,0.58,0.22,0.58,0.73c0,0.15,0,0.29-0.15,0.51
		c-1.52,1.96-2.97,3.63-4.43,5.15c-4.5,4.64-10.88,7.69-15.89,7.69c-6.31,0-8.85-2.76-8.85-6.6c0-5.15,5.8-10.08,12.48-12.77
		c-0.73-1.23-1.09-2.68-1.09-4.21c0-4.93,4.43-10.38,15.53-10.38c3.19,0,5.15,0.94,5.15,2.47c0,1.09-1.02,2.39-3.26,3.85
		c-0.07-2.83-3.7-3.99-5.59-3.99C133.42,33.23,130.23,37.8,130.23,41.79z M139.81,46.07c0-0.51-0.73-0.94-2.39-0.94
		c-2.03,0-3.92,0.36-5.59,0.87c1.02,0.94,2.39,1.52,4.28,1.52C138.35,47.52,139.81,46.72,139.81,46.07z"/>
	<path class="st0" d="M170.28,51.51c0,0.15,0,0.29-0.14,0.51c-6.89,8.92-13.71,11.9-20.24,11.9c-6.82,0-9.07-3.34-9.07-6.89
		c0-3.92,2.76-8.05,5.15-8.05c0.51,0,1.02,0.07,1.52,0.22c3.12-3.48,6.6-7.18,9.65-10.74c-0.07-1.02-0.22-2.25-0.22-3.27
		c0-6.02,3.41-8.85,5.66-8.85c1.09,0,1.89,0.65,1.89,1.96c0,2.1-2.03,5.3-5.08,9.07c0.51,3.7,1.81,8.92,1.81,14.22
		c0,4.5-2.03,7.62-4.79,9.58c4.14-1.31,8.49-4.72,13.28-10.38C169.7,50.78,170.28,51,170.28,51.51z M143.29,59.2
		c0,1.23,0.73,1.96,2.25,1.96c5.51,0,11.75-8.71,11.75-20.03V39.9c-2.9,3.27-5.88,6.38-8.71,9.79c0.29,0.15,0.44,0.29,0.51,0.36
		C145.32,53.69,143.29,57.17,143.29,59.2z M160.99,29.09c-0.87,0-1.96,1.09-1.96,4.14c0,0.58,0.07,1.16,0.15,2.68
		c1.81-2.32,2.97-4.28,2.97-5.51C162.15,29.6,161.57,29.09,160.99,29.09z"/>
	<path class="st0" d="M194,30.54c-5.08,5.01-10.81,10.16-16.25,14.8c-3.41,5.95-5.66,11.25-5.66,14.22c0,1.67,0.73,2.68,2.32,2.68
		c2.1,0,6.31-3.85,12.7-11.46c0,0,0.58,0.22,0.58,0.73c0,0.15,0,0.29-0.15,0.51c-6.96,8.92-12.99,12.84-16.69,12.84
		c-3.85,0-5.44-1.74-5.44-4.64c0-6.31,7.62-17.99,16.54-28.88c-2.03,0.15-4.21,0.29-6.38,0.36c-1.09,0-3.26-0.07-3.26-1.81
		c0-0.51,0.29-0.94,0.87-0.94c3.48,0,7.18-0.07,11.03-0.29c9.94-11.61,20.68-21.55,23.87-21.55c1.74,0,2.54,0.65,2.54,1.89
		c0,3.34-5.88,10.67-13.79,18.72c12.12-1.09,24.6-2.83,35.26-4.64c1.81-0.29,5.44-1.16,5.66-1.16c0.44,0,0.73,0.07,0.73,0.29
		c0,1.16-0.94,3.27-1.89,3.63C235.65,26.19,224.04,28.44,194,30.54z M187.11,31.05c-2.68,3.63-5.22,7.4-7.47,11.1
		c4.14-3.34,8.49-7.4,12.48-11.46L187.11,31.05z M189.14,28.36c1.89-0.07,3.77-0.29,5.73-0.44c7.04-7.47,12.41-14.29,12.41-16.03
		c0-0.22-0.07-0.36-0.36-0.36C203.51,11.53,196.18,19.08,189.14,28.36z"/>
	<path class="st0" d="M191.31,61.45c0-5.44,9.5-15.89,14.22-20.24c-3.48-0.65-6.17-1.6-8.13-2.61c-3.12,4.86-7.33,10.38-11.39,15.31
		c0,0-0.73-0.15-0.73-0.65c0-0.22,0.14-0.51,0.51-0.94l1.31-1.52c3.41-4.06,6.75-8.78,9.14-12.84c-2.83-1.74-3.99-3.77-3.99-5.66
		c0-3.41,3.85-6.38,8.13-6.38c1.38,0,1.96,0.73,1.96,1.96c0,1.74-1.23,4.57-3.19,7.91c1.31,0.44,2.97,0.65,5.08,0.65
		c4.93,0,8.71-0.65,8.71-0.65s1.23,0.15,1.23,0.87c0,0.15-0.07,0.36-0.22,0.58c-7.69,7.11-15.82,17.7-15.82,22.2
		c0,1.89,0.58,2.83,1.6,2.83c2.1,0,6.31-3.85,12.7-11.46c0,0,0.58,0.22,0.58,0.73c0,0.15,0,0.29-0.15,0.51
		c-6.96,8.92-12.99,12.84-16.69,12.84C192.69,64.86,191.31,63.48,191.31,61.45z M197.77,28.07c-1.74,0-3.05,1.45-3.05,3.19
		c0,1.38,0.87,2.9,2.97,3.99c1.23-2.39,1.96-4.43,1.96-5.66C199.66,28.29,198.79,28.07,197.77,28.07z"/>
	<path class="st0" d="M239.93,38.09c0,3.92-4.79,11.46-11.39,17.56c0.58,0.73,1.38,1.09,2.39,1.09c2.32,0,5.59-2.18,8.71-5.95
		c0,0,0.65,0.22,0.65,0.73c0,0.15-0.07,0.29-0.22,0.51c-3.12,4.43-7.18,6.6-10.52,6.6c-1.31,0-2.47-0.29-3.41-0.94
		c-5.01,4.06-10.81,7.04-16.33,7.04c-3.05,0-4.43-1.74-4.43-4.35c0-9.07,15.96-29.02,34.25-29.02c2.39,0,3.12,0.65,3.12,1.45
		c0,1.16-1.67,2.61-2.03,2.61c-0.15,0-0.73-2.03-4.14-2.03c-9.87,0-24.38,16.69-24.38,23.94c0,2.03,1.16,3.34,3.85,3.34
		s5.73-1.89,8.56-4.5c-0.73-1.09-1.09-2.61-1.09-4.43c0-6.75,6.09-16.18,13.79-16.18C239.13,35.55,239.93,36.49,239.93,38.09z
		 M234.41,37.87c-3.12,0-6.82,8.2-6.82,13.79c0,0.51,0,0.94,0.07,1.38c4.35-5.08,7.76-11.25,7.76-13.86
		C235.43,38.38,235.14,37.87,234.41,37.87z"/>
</g>
</svg>
