<?xml version="1.0" encoding="utf-8"?>
<!-- Generator: Adobe Illustrator 27.2.0, SVG Export Plug-In . SVG Version: 6.00 Build 0)  -->
<svg version="1.1" id="AppIcon-1__x28_dragged_x29__xA0_Image_00000032623312795618398690000002449923480620457378_"
	 xmlns="http://www.w3.org/2000/svg" xmlns:xlink="http://www.w3.org/1999/xlink" x="0px" y="0px" viewBox="0 0 128 128"
	 style="enable-background:new 0 0 128 128;" xml:space="preserve">
<style type="text/css">
	.st0{fill:#1D1D1B;}
</style>
<g>
	<g>
		<path d="M54.31,125.38c1.11-2.16-1.46-1.83-2.04-2.87c-0.2-0.35-0.4,0.43-0.27,0.62c0.69,1.09-0.06,2.59,0.31,3.24
			c1.01,1.77-0.2,1.53-1.04,1.54c-7.62,0.04-15.25,0-22.87,0.04c-1.22,0.01-1.54-0.43-1.65-1.61c-0.18-2.06,1.12-5.01-0.69-5.94
			c-1.33-0.68-4,0.75-5.85,1.68c-3.59,1.8-6.05,1.5-8.99-1.81c-4.27-4.8-5.09-9.63-0.96-14.6c0.91-1.1,1.64-2.15,1.87-3.62
			c0.18-1.14,0.55-2.55,2.07-2.64c3.02-0.17,3.2-2.58,2.81-4.37c-1.13-5.18,2.38-8.06,5.02-11.43c0.2-0.25,0.72-0.48,0.98-0.4
			c3.63,1.15,6.63-0.95,9.86-1.83c1.52-0.41,3.07-0.71,4.6-1.1c0.71-0.18,1.54-0.35,1.66-1.25c0.11-0.81-0.69-0.98-1.17-1.39
			c-4.46-3.8-8.48-7.93-10.77-13.5c-0.69-1.68-2.17-3.01-2.56-4.89l-0.06,0.05c0.85-1.67,0.02-3.27-0.27-4.87
			c-0.33-1.77-0.38-3.48-0.03-5.24c0.25-1.29,1.04-2.1,2.08-2.81c0.71-0.48,2.08,0.18,2.12-0.67c0.03-0.54-1.42-0.27-2.21-0.31
			c-0.23-0.01-0.45-0.19-0.68-0.29c0.27-0.23,0.5-0.55,0.8-0.66c1.72-0.63,3.47-0.45,5.21-0.1c0.46,0.09,1.07,0.27,1.23-0.21
			c0.28-0.81-0.53-0.8-1.01-0.92c-1.42-0.37-2.74-1.2-4.31-0.85c-0.3,0.07-0.9-0.06-0.93-0.21c-0.11-0.44,0.36-0.54,0.69-0.7
			c0.08-0.04,0.19-0.04,0.26-0.1c0.75-0.55,2.41-0.08,2.32-1.22c-0.06-0.77-1.63-0.36-2.51-0.57c-0.31-0.08-0.63-0.14-0.94-0.2
			c0.25-0.11,0.5-0.22,0.75-0.33c1.12-0.48,1.08-0.48,0.96-1.46c-0.09-0.72,0.52-0.66,0.93-0.61c0.91,0.1,1.81,0.29,2.72,0.44
			c0.13,0.41,0.22,0.87,0.77,0.91c0.08,0.01,0.27-0.24,0.25-0.31c-0.19-0.5-0.67-0.47-1.09-0.53c-2.21-1.04-4.52-1.92-6.09-3.95
			c-0.11-0.14-0.59,0.01-0.41-0.36c0.07-0.15,0.51-0.13,0.78-0.15c2.08-0.12,3.69,1.05,5.38,1.99c0.38,0.21,0.78,0.72,1.2,0.32
			c0.56-0.53,0.01-0.99-0.3-1.42c-0.16-0.22-0.37-0.41-0.58-0.6c-0.96-0.87-3.31-1.33-3.04-1.99c0.5-1.23,2.23-0.07,3.43-0.22
			c0.5-0.06,0.88-0.34,0.98-0.84c0.14-0.74-0.33-1.2-0.83-1.64c-1.04-0.91-2.6-1.02-3.44-2.23c1.5-0.76,2.74,0.73,4.18,0.48
			c0.36-0.06,0.74-0.01,1.11-0.02c0,0-0.11-0.08-0.11-0.08c0.22,0.22,0.44,0.44,0.66,0.66l-0.1-0.1c0.22,0.22,0.44,0.44,0.66,0.66
			l-0.08-0.11c0.06,1.28,0.89,2.1,1.74,2.91l-0.08-0.05c0.41,0.6,0.82,1.21,1.24,1.81c1.3,1.89,0.16,1.94-1.31,1.73
			c-0.07-0.25,0.18-0.66-0.35-0.67c0.13,0.2,0.27,0.41,0.4,0.61c0.29,0.98,0.69,1.94,0.84,2.93c0.44,3.08,0.92,6.17,1.1,9.28
			c0.06,1.02,0.22,1.77,0.88,2.47c1.52,1.63,3.01,3.29,4.57,4.88c1.57,1.6,3,1.25,3.7-0.94c0.64-2.04,1.07-4.14,2.06-6.06
			c2.02-3.91,4.68-5.32,8.03-4.19c2.89,0.98,4.26,4.09,3.59,8.1c-0.31,1.83-0.53,3.67-0.84,5.51c-0.25,1.49,0.44,1.86,1.75,1.54
			c0.9-0.22,1.79-0.59,2.7-0.68c1.31-0.12,1.78-0.63,1.59-1.97c-0.27-1.86-0.21-3.72,0.66-5.46c0.33-0.66,0.15-1.15-0.26-1.77
			c-1.7-2.55,0.14-8.73,2.93-10.03c0.17-0.08,0.38-0.18,0.53-0.14c3.13,0.95,6.45,1.4,9.14,3.48c0.41,0.32,0.69,0.81,1.03,1.23
			c0.54-0.58-0.03-1.21,0.08-1.82c0.05-0.27,0.08-0.55,0.11-0.83l-0.06,0.07c1.44,1.4,1.41,3.39,1.99,5.12
			c2.17,6.51,4.6,12.94,6.32,19.6c0.97,3.74-0.23,7.09-1.5,10.48c-0.58,1.55-2.33,0.23-3.32,1.76c-1.06,1.64-1.95-0.4-2.53-1.41
			c-0.22-0.39-0.36-0.69-0.72-0.3c-0.58,0.63-1.04,1.35-0.43,2.24l0.02-0.05c-2.28-0.98-2.91-3.21-3.81-5.18
			c-0.7-1.54-1.41-3.03-2.6-4.26c-1.32-1.37-2.57-1.55-3.49,0.33c-0.64,1.29-1.63,2.23-2.59,3.23c-2.7,2.79-3.18,2.67-5.61-0.12
			c-1.11-1.27-3.01-1.81-3.58-3.68c-0.22-0.73-0.57-1.53,0.28-1.96c0.7-0.35,0.79,0.51,1.1,0.92c1.52,1.96,3.61,1.08,5.39,0.79
			c1.68-0.27,1.93-2.01,1.67-3.39c-0.36-1.91,0.91-4.81-2.72-5.06c-2.87-0.19-6.88,2.21-6.95,4.79c-0.04,1.47-0.54,1.07-1.14,0.87
			c-1.74-0.58-3.04,0.14-4.35,1.17c-2.42,1.9-4.71,3.93-6.55,6.42c-0.77,1.04-1.51,2.13-2.76,2.67l0.05,0.08
			c-0.37-0.29-0.65-1.13-1.19-0.61c-0.55,0.54,0.36,0.8,0.58,1.2l-0.06-0.04c1.69,1.6,4.86,1.82,6.22,0.1
			c1.66-2.11,2.34,0.96,3.82,0.47c1.03-0.34,1.24-3.21,3.05-1.12c0.67,0.78,1.38,0.16,2.05,0.1c1.47-0.13,1.47-0.16,1.89,1.49
			c0.16,0.65,0.72,0.54,1.1,0.49c0.96-0.14,2.44,0.94,2.76-0.77c0.23-1.23,0.66-0.93,1.48-0.76c4.24,0.89,8.48,1.74,12.74,2.51
			c0.99,0.18,1.64,0.71,1.71,1.55c0.12,1.49-1.01,0.4-1.54,0.58c-1.34,0.45-2.29,1.5-2.62,2.68c-0.36,1.31,1.13,1.38,2,1.81
			c2.42,1.19,4.82,2.4,7.2,3.67c1.05,0.56,2.03,0.95,3.06,0.04c0.07-0.06,0.17-0.08,0.24-0.14c1.68-1.39,3.48,1.63,4.16,0.54
			c0.91-1.46,2.41-3.03,3.29-2.83c2.28,0.52,3.64-0.66,5.24-1.59l-0.05,0.02c1.18,1.62,2.5,2.08,4.18,0.61
			c0.62-0.54,1.5-1.08,2.21-0.21c0.69,0.85-0.06,1.64-0.56,2.23c-1.15,1.33-2.45,2.53-3.65,3.82c-0.36,0.39-0.82,0.91-0.32,1.45
			c0.46,0.5,1.02,0.19,1.53-0.07c2.02-1.05,2.88-3.09,4.15-4.79c0.52-0.7,1-2.26,2.1-1.37c0.78,0.63,1.22,2.1,0.08,3.23
			c-1.25,1.24-2.48,2.52-3.66,3.83c-0.46,0.51-1.3,1.09-0.59,1.88c0.76,0.85,1.79,0.66,2.48-0.08c1.14-1.21,2.14-2.57,3.18-3.87
			c0.72-0.9,1.42-1.81,2.77-1.01c1.38,0.83,0.93,1.78,0.21,2.77c-0.26,0.36-0.69,0.84-0.15,1.18c0.31,0.19,0.89,0.09,1.29-0.04
			c0.43-0.14,0.84-0.42,1.17-0.72c1.13-1.03,2.5-1.32,3.47-0.18c1.11,1.3-0.02,2.47-1.01,3.32c-1.97,1.69-3.93,3.42-6.09,4.85
			c-4.28,2.83-4.54,3.39-2.45,8.12c0.94,2.13,1.68,4.4,2.94,6.32c2.63,4,0.65,7.68-0.38,11.45c-0.3,1.09-1.24,0.93-2.06,0.94
			c-5.77,0.01-11.54-0.02-17.31,0.03c-2.85,0.02-4.41-1.7-4.88-4.1c-0.36-1.8-1.84-1.77-2.73-2.65c-0.56-0.55-0.5,0.1-0.51,0.33
			c-0.04,0.74,0.06,1.5-0.04,2.23c-0.49,3.63-1.11,4.15-4.75,4.16c-4.84,0-9.69-0.11-14.52,0.05c-2.23,0.07-2.44-0.63-1.85-2.54
			c0.74-2.39,1.19-4.88,1.74-7.33c0.07-0.33-0.01-0.7-0.02-1.06c-0.22,0.26-0.52,0.49-0.65,0.8c-0.9,2.14-1.76,4.3-2.66,6.45
			c-0.33,0.79-0.84,1.6-1.71,1.71c-1.09,0.15-1.32-0.84-1.5-1.66c-0.31-1.4-1.52-1.3-2.43-1.29c-1.19,0-1.1,0.97-0.92,1.86
			c0.16,0.8,0.01,1.61-0.91,1.74c-0.78,0.11-1.17-0.43-0.94-1.27c0.08,0,0.16-0.01,0.24-0.01C54.48,125.39,54.4,125.39,54.31,125.38
			z M38.33,49.85c0.02-0.02,0.05-0.04,0.07-0.05c-0.04-0.02-0.09-0.04-0.13-0.06c0.07,0.06,0.14,0.12,0.2,0.18
			C38.42,49.89,38.36,49.87,38.33,49.85z M35.53,47.17c0.03-0.03,0.06-0.07,0.08-0.1c-0.05,0-0.11,0.01-0.16,0.01
			c0.25,0.12,0.49,0.25,0.75,0.35c0.19,0.07,0.23,0.52,0.56,0.22C36.35,47.49,35.93,47.33,35.53,47.17z M75.81,45.99l0.05-0.13
			l-0.01,0.09c0.18,0.21,0.34,0.43,0.54,0.61c0.32,0.31,0.67,0.6,1.02,0.87c0.03,0.02,0.32-0.2,0.31-0.27
			c-0.14-0.59-0.62-0.87-1.13-1.06C76.35,46,76.06,46.03,75.81,45.99z M73.49,65.07c-0.18,0.01-0.36-0.01-0.53,0.04
			c-0.32,0.09-0.78-0.47-0.96,0.21c0.51-0.09,1.03-0.18,1.54-0.27c-0.13,1.36,1.02,1.87,1.78,2.61c0.48,0.46,0.84,1.38,1.75,0.93
			c0.22-0.11,0.31-0.64,0.33-0.99c0.05-0.92-0.35-1.56-1.27-1.9C75.29,65.38,74.27,65.78,73.49,65.07z M43.51,90.04
			c-0.36-0.09-0.71-0.22-1.08-0.27c-0.58-0.09-1.43-0.63-1.63,0.25c-0.14,0.63,0.88,0.41,1.28,0.74c2.28,1.91,5.84,1.18,7.81,3.82
			c0.38,0.51,1.18,0.04,0.96-0.65c-0.2-0.65-0.82-1.17-1.25-1.75c1.22,0.45,2.42,0.84,3.64-0.05c0.5-0.37,1.06-0.72,0.07-1.02
			c-2.85-0.88-5.72-1.72-8.61-2.46C43.69,88.37,43.55,89.26,43.51,90.04z M47.96,55.88c2.05-1.69,3.19-4.06,4.57-6.24
			c1.28-2.02,2.92-3.33,5.4-3.4c0.48-0.01,1.24,0.37,1.36-0.44c0.09-0.59-0.51-0.93-0.97-1.24c-2.23-1.51-5.03-0.82-6.7,1.78
			c-1.89,2.93-2.42,6.39-3.58,9.6c-0.42-0.06-0.72,0.1-0.83,0.52c-0.02,0.07,0.22,0.3,0.3,0.28C47.94,56.63,47.96,56.25,47.96,55.88
			z M53.88,89.65c0.08-0.01,0.17-0.04,0.25-0.02c0.29,0.07,0.36,0,0.15-0.09c-0.11-0.05-0.3,0.1-0.46,0.16
			c-0.44-1.34-2.28-1.08-2.75-2.4c1.67-0.4,3.05,0.5,4.5,1.05c0.17,0.06,0.3,0.23,0.47,0.3c0.23,0.1,0.48,0.15,0.72,0.23
			c-0.08-0.23-0.1-0.54-0.26-0.66c-3.16-2.4-6.57-4.2-10.68-4.21c-0.87,0-1.17,0.48-1.05,1.25c0.25,1.71,0.62,3.32,2.79,3.58
			C49.65,89.07,51.75,89.39,53.88,89.65z M73.78,52.7l0.07-0.06c-1.16-1.87-2.23-1.12-3.29,0.11l0.04,0.03
			c-0.25-0.88-0.49-1.78-0.78-2.65c-0.07-0.21-0.36-0.5-0.54-0.5c-0.21,0.01-0.55,0.27-0.59,0.47c-0.42,2.1-0.3,4.03,1.47,5.61
			c1.78,1.59,3.46,3.27,6.1,1.8c0.88-0.49,1.45-1.23,1.18-2.29c-0.37-1.43-0.71-3.02-2.08-3.77C74.7,51.08,74.27,52.2,73.78,52.7z
			 M57.61,52.7l0.06,0.02c-0.87-1.35-4.39-2-5.15-0.82c-1.59,2.46-3.2,4.94-4.42,7.58c-0.72,1.57-0.19,3.15,2.02,3.33
			c1.57,0.13,3.14,0.4,4.71,0.37c1.95-0.04,3.19-1.3,4.09-2.92c0.12-0.21,0.13-0.59,0.02-0.79c-0.18-0.34-0.47-0.19-0.61,0.09
			c-1.27,2.71-2.81-0.08-4.24,0.17c-0.69,0.12-1.21-0.8-1.21-1.62c0-1.28,1.05-0.84,1.65-0.82c2.51,0.1,3.96-1.54,5.1-3.32
			c1.08-1.7,1.15-3.7,0.11-5.55c-0.32-0.56-0.9-1.05-1.61-0.84c-0.97,0.29-0.47,1.03-0.33,1.61C58.09,50.38,58.24,51.56,57.61,52.7z
			 M59.18,120.67c-0.09,0.87-0.05,1.74,0.91,2.09c0.74,0.27,0.93-0.43,1.11-0.92c2.59-6.94,7.81-12.91,7.65-20.85
			c-0.02-0.82,0.92-2.06-0.36-2.3c-0.81-0.15-2.21,0.75-2.2,1.78c0.03,3.57-1.57,6.78-2.02,10.27c-0.48,3.72-2.16,7.34-5.17,10.02
			c-1.5-1.41-3.3-2.59-3.58-4.89c-0.07-0.62-0.95-1.42-0.41-1.71c0.83-0.44,1.06,0.69,1.49,1.22c0.51,0.63,0.95,1.68,1.85,1.42
			c0.9-0.27,0.7-1.43,0.8-2.22c0.69-5.73,1.08-11.48,0.73-17.26c-0.04-0.72-0.07-1.92-0.43-2.06c-0.98-0.38-1.07,0.97-1.7,1.36
			c-1.37,0.84-2.82,1.56-4.24,2.31c-1.38,0.73-3.12,0.69-4.26,1.94c-1.49,1.61,0.45,2.88,0.53,4.37c0.23,4.63,0.91,9.23,1.47,13.84
			c0.29,2.36,2.07,3.28,4.42,2.5C56.87,121.22,57.89,120.44,59.18,120.67z M64.97,100.27c-0.01-1.72-2.41-4.64-3.18-4.23
			c-1.39,0.73-0.51,2.14-0.54,3.23c-0.17,5.2-0.25,10.41-0.36,15.61c-0.01,0.52-0.63,1.26-0.1,1.48c0.49,0.2,0.73-0.68,0.98-1.14
			c1.55-2.87,0.75-6.21,1.86-9.21C64.36,104.03,64.61,101.86,64.97,100.27z M70.29,89.25c0.35-1.01-0.43-1.43-1.89-1.04
			c-1.68,0.46-3.35,0.99-5.02,1.49c-0.75,0.23-1.35,0.6-1.38,1.5c-0.03,0.94,0.67,1.21,1.35,1.53c1,0.45,2.05,0.74,2.95,1.47
			c1.97,1.61,3.01,1.21,3.51-1.28C70,91.94,70.07,90.92,70.29,89.25z M25.51,104.99c0.42,0.11,0.43-0.36,1.16-1.69
			c2.71-4.88,3.22-11.45,9.96-13.32c0.09-0.02,0.17-0.08,0.24-0.14c0.27-0.24,0.67-0.45,0.46-0.89c-0.2-0.41-0.59-0.28-0.96-0.22
			c-2.96,0.5-5.29,1.71-6.79,4.57c-1.76,3.37-2.95,6.95-4.33,10.47C25.08,104.21,25.06,104.66,25.51,104.99z M60.35,83.12
			c1-0.16,2-0.3,2.99-0.5c0.65-0.13,1.39-0.43,1.39-1.14c0-0.99-0.96-0.6-1.51-0.73c-1.26-0.28-2.53-0.59-3.81-0.68
			c-1.14-0.08-2.94-1.14-3.24,0.71c-0.23,1.44,1.52,1.82,2.8,2.12C59.42,83.01,59.88,83.05,60.35,83.12z M39.69,91.1
			c-1.66,0.05-3.01,0.3-4.18,1.14c-0.42,0.3-1.14,0.6-0.76,1.22c0.31,0.51,0.79-0.09,1.19-0.22c2.17-0.72,4.29-0.83,6.46,0.1
			c1.17,0.5,2.47,0.74,3.72,1.05c0.24,0.06,0.53-0.08,0.79-0.12c-0.18-0.19-0.33-0.46-0.55-0.57C44.13,92.62,42.03,91.2,39.69,91.1z
			 M104.58,103.23c-0.44-0.95-1.17-0.59-1.89-0.44c-2.42,0.51-4.12,2.97-6.89,2.57c-0.12-0.02-0.28,0.19-0.42,0.29
			c0.18,0.18,0.34,0.4,0.55,0.53c1.14,0.75,7.89-1.17,8.5-2.41C104.5,103.61,104.53,103.42,104.58,103.23z M38.58,51.82
			c-0.9,0.27-0.49,0.99-0.37,1.54c0.48,2.16,1.01,4.3,1.52,6.45c0.14,0.6,0.01,1.81,0.5,1.65c0.85-0.28,0.09-1.19-0.06-1.8
			c-0.31-1.22,0.27-2.14,0.82-3.11C41.59,55.49,39.82,51.92,38.58,51.82z M71.82,45.57c-0.72-0.08-1.31,0.15-1.55,0.85
			c-0.2,0.56,0.25,0.82,0.69,1.01c1.94,0.83,4.02,1.4,5.56,2.98c0.11,0.11,0.29,0.16,0.44,0.23c0-0.16,0.02-0.32-0.01-0.47
			C76.59,48.29,73.61,45.62,71.82,45.57z M50.26,63.98c-3.45-0.63-2.19,2.75-3.52,3.88c-0.14,0.12-0.06,0.49-0.08,0.75
			c1.43-0.13,1.86-1.53,2.83-2.25c0.36-0.27,0.66-0.63,0.97-0.97c0.41-0.44,1.53-0.28,1.35-1.06C51.63,63.55,50.7,64.09,50.26,63.98
			z M37.96,58.4c-0.07-0.26-0.22-0.93-0.27-0.92c-2.5,0.39-1.65-2.2-2.75-3.07c-0.56-0.44-0.87-1.18-1.35-1.75
			c-0.13-0.16-0.44-0.17-0.66-0.25c-0.03,0.17-0.15,0.39-0.09,0.51c1.19,2.18,1.9,4.64,3.71,6.45c0.22,0.22,0.69,0.36,0.99,0.29
			C38.16,59.51,37.92,58.93,37.96,58.4z M60.88,90c0.15-1.08-0.48-1.49-1.41-1.56c-0.81-0.06-1.61,0.2-1.39,1.16
			c0.19,0.86-0.16,2.29,1.3,2.33C60.48,91.96,60.8,90.99,60.88,90z M92.14,89.78c-0.55,0.55-1.4,1.1-1.3,2.14
			c0.06,0.58,0.36,1.5,1.17,1.22c1.01-0.35,1.56-1.28,1.44-2.4C93.4,90.17,93.02,89.74,92.14,89.78z M46.15,60.62
			c0.06-0.5-0.02-1.09-0.4-0.92c-1.38,0.61-1.94,2.07-2.92,3.12c-0.22,0.24,0.07,0.82,0.49,0.74C45,63.25,45.42,61.71,46.15,60.62z
			 M70.02,84.35c-0.68,0.14-1.2,0.53-1.27,1.22c-0.06,0.63,0.16,1.37,0.92,1.36c0.74-0.01,0.92-0.79,1.07-1.39
			C70.89,84.96,70.72,84.47,70.02,84.35z M44.69,58.87c-0.14-0.18-0.31-0.53-0.41-0.52c-0.97,0.18-1.6,0.82-1.92,1.71
			c-0.15,0.4,0.22,0.7,0.63,0.6C43.87,60.43,44.14,59.57,44.69,58.87z M78.55,62.78c0.58,0.01,0.8-0.33,0.75-0.85
			c-0.06-0.61-0.42-0.99-1.05-0.99c-0.5,0-0.92,0.23-0.81,0.8C77.54,62.32,78,62.62,78.55,62.78z M36.65,50.35
			c-0.16-0.73-0.68-1.24-1.31-1.59c-0.38-0.21-0.74,0.05-0.65,0.49c0.16,0.77,0.77,1.21,1.42,1.54
			C36.41,50.95,36.61,50.73,36.65,50.35z M66.8,86.82c-0.62,0.49-1.54,0.32-1.82,1.18c0.25,0.05,0.54,0.2,0.75,0.13
			c0.64-0.22,1.51-0.12,1.68-1.05C67.42,87.03,67,86.9,66.8,86.82z M75.94,63.53c-0.13-0.54-0.14-1.05-0.7-1.14
			c-0.12-0.02-0.42,0.33-0.42,0.52c-0.02,0.45,0.07,0.95,0.63,1.04C75.59,63.98,75.79,63.67,75.94,63.53z M99.71,87.17
			c0.05-0.44-0.2-0.7-0.58-0.8c-0.4-0.1-0.73,0.1-0.81,0.51c-0.1,0.51,0.1,0.93,0.66,0.96C99.38,87.87,99.61,87.55,99.71,87.17z
			 M90.45,95.84c-0.01,0.37-0.22,0.75,0.24,0.65c0.17-0.04,0.28-0.45,0.37-0.71c0.09-0.23,0.26-0.63-0.1-0.64
			C90.78,95.14,90.58,95.66,90.45,95.84z M79.78,50.51c-0.22-0.58-0.35-1.13-1.01-1.18c-0.03,0-0.15,0.33-0.09,0.43
			c0.25,0.45,0.55,0.88,0.83,1.32C79.6,50.87,79.7,50.66,79.78,50.51z M45.84,81.98c-0.42-0.33-0.74-0.74-1.13-0.84
			c-0.63-0.16-0.51,0.32-0.34,0.66c0.19,0.4,0.34,0.93,0.94,0.81C45.48,82.57,45.61,82.26,45.84,81.98z M98.17,89.43
			c-0.41,0.08-0.67,0.25-0.49,0.57c0.11,0.19,0.43,0.33,0.67,0.35c0.33,0.03,0.55-0.24,0.39-0.53
			C98.64,89.62,98.33,89.53,98.17,89.43z M48.02,96.85c0.14-0.44-0.03-0.61-0.34-0.61c-0.15,0-0.42,0.13-0.42,0.22
			c-0.02,0.2,0.1,0.41,0.16,0.61C47.63,96.99,47.85,96.91,48.02,96.85z M56.81,91.55c-0.08-0.16-0.15-0.3-0.22-0.45
			c-0.14,0.09-0.36,0.14-0.42,0.26c-0.13,0.27-0.05,0.53,0.3,0.53C56.58,91.89,56.69,91.66,56.81,91.55z M55.58,48.77
			c-0.08-0.14-0.14-0.35-0.25-0.39c-0.12-0.04-0.36,0.06-0.41,0.17c-0.13,0.27,0,0.49,0.31,0.49
			C55.34,49.04,55.45,48.87,55.58,48.77z M71.6,49.48c-0.08-0.14-0.12-0.33-0.23-0.39c-0.08-0.04-0.34,0.07-0.36,0.16
			c-0.03,0.11,0.07,0.37,0.15,0.39C71.28,49.66,71.44,49.54,71.6,49.48z M55.3,93.32c-0.11,0.13-0.21,0.24-0.29,0.36
			c0,0.01,0.13,0.15,0.17,0.14c0.14-0.04,0.27-0.13,0.41-0.19C55.5,93.53,55.4,93.43,55.3,93.32z M103.06,97.69l-0.13,0.2l0.21,0.03
			L103.06,97.69z M80.51,57.33l-0.19-0.13l-0.03,0.2L80.51,57.33z"/>
		<path d="M71.92,9.57c0.52,0.68,1.14,1.19,1.98,1.46c7.27,2.38,11.57,7.86,14.58,14.46c0.9,1.97,1.68,3.21,4,2.59
			c0.33-0.09,0.73,0.05,1.09,0.08c-0.28,0.08-0.56,0.21-0.85,0.23c-2.3,0.15-2.91,1.33-2.62,3.57c0.25,1.91-0.03,3.89-0.14,5.84
			c-0.07,1.27-0.2,2.31,1.7,1.55c1.32-0.53,2.75-0.39,3.93,0.62l0.02,0c-2.13-0.97-3.61,0.33-5.28,1.34
			c-0.79,0.48-0.33,3.27-2.56,1.47c-0.25-0.2-0.11,1.05-0.06,1.6c0.09,1.07,0.75,0.93,1.31,0.38c1.98-1.92,4.31-2.26,6.88-1.67
			c0-0.01,0.08,0,0.08,0l-0.14,0.06c0.03-0.75-1.4-1.19-0.76-1.75c0.57-0.5,1.25,0.43,1.69,1.01c0.45,0.59,0.81,1.25,1.32,1.78
			c4.25,4.45,3.28,9.45,0.82,14.04c-2.06,3.84-3.09,8.13-5.52,11.78c-0.38,0.57-0.18-0.01-0.17,0.82c0,0,1.1,5.39,1.1,5.39
			c-1.94-1.88-2.98-8.32-3.56-10.69c-2.23-9.02-5.81-17.6-8.38-26.5c-0.19-0.65-1.03-1.59-0.38-1.94c0.72-0.39,1.42,0.6,2.01,1.18
			c0.2,0.19,0.35,0.44,0.49,0.67c0.75,1.19,1.96,2.02,3.21,1.84c1.53-0.22,1.21-1.91,1.34-3.02c1.17-9.91-4.77-20.89-13.69-25.45
			c-2.28-1.17-4.79-1.5-7.23-1.49c-2.29,0.01-3.39-0.35-2.86-2.91c0.24-1.15,0.24-2.39-0.3-3.53l0,0.01
			c1.35,1.46,1.93,0.48,2.47-0.76c0.17-0.39,0.26-0.97,0.85-0.88c0.11,0.02,0.06,0.7,0.2,1.03c0.86,2.03-0.25,3.52-1.34,5.01
			c0.17-0.72,0.34-1.44,0.51-2.15c-0.14-0.01-0.28-0.03-0.41-0.04c-0.03,0.72-0.06,1.45-0.08,2.17c1.26,2.16,3.22,0.36,4.78,0.85
			L71.92,9.57z M99.02,47.31l-0.13,0.12c0,0,0.19-0.08,0.19-0.08C99.07,47.33,99.04,47.32,99.02,47.31z M91.47,49.65
			c0.27-0.21,0.53-0.43,0.8-0.64c-0.1-0.08-0.2-0.17-0.31-0.25c-0.14,0.32-0.27,0.63-0.4,0.95l-0.05,0.05L91.47,49.65z M84.41,40.91
			c-0.07-0.01-0.14-0.01-0.21-0.02c0.01,0.13,0.01,0.26,0.05,0.38c0.01,0.02,0.13,0.01,0.2,0.02
			C84.43,41.17,84.42,41.04,84.41,40.91z"/>
		<path d="M60.46,40.32c-1.84-0.44-3.38-0.78-4.91-1.17c-4.36-1.1-7.42,0.51-9.01,4.63c-0.46,1.18-0.4,3.23-1.89,3.08
			c-0.67-0.07,0.43-2.25,0.63-3.49c0.29-1.79,1.33-3.26,2.3-4.7c1.74-2.6,4.67-3.62,7.62-2.8c1.71,0.47,3.44,0.65,5.21,0.79
			c1.43,0.12,1.66,1.27,1.54,2.49C61.84,40.29,61.07,40.41,60.46,40.32z"/>
		<path d="M35.03,25.15c-0.23-0.28-0.44-0.61-0.71-0.85c-0.87-0.78-1.77-1.52-2.66-2.28c1.31-0.34,2.25,0.64,3.37,0.98
			c0.41,0.12,0.9,0.52,1.14-0.1c0.08-0.21-0.24-0.65-0.46-0.89c-0.24-0.26-0.6-0.42-0.9-0.63c-0.5-0.35-1.52-0.51-1.28-1.2
			c0.3-0.9,1.22-0.44,1.91-0.27c0.49,0.12,1,0.78,1.46,0.16c0.33-0.45-0.18-0.85-0.5-1.16c-0.72-0.69-1.26-1.42-0.53-2.4
			c0.35-0.47,0.83-0.43,1.17-0.02c0.66,0.79,2.17,1.11,1.74,2.55c-1.03,3.42-1.5,6.86-0.87,10.42c0.14,0.8-0.5,1.11-1.15,1.31
			c0,0,0.08,0.05,0.08,0.05c-0.39-1.08-0.84-2.13-1.74-2.91c0,0,0.08,0.11,0.08,0.11c-0.22-0.22-0.44-0.44-0.66-0.66
			c0,0,0.1,0.1,0.1,0.1c-0.22-0.22-0.44-0.44-0.66-0.66c0,0,0.11,0.08,0.11,0.08c-0.76-1.95-3.28-1.88-4.18-3.67l-0.04,0.03
			c1.75,0.62,3.51,1.24,5.26,1.86c0.22,0.23,0.44,0.46,0.65,0.69c0,0-0.06,0.06-0.06,0.06C35.47,25.61,35.25,25.38,35.03,25.15z"/>
		<path d="M52.82,27.93c3.01,0.19,6.5,1.38,9.86,3.03c1.75,0.86,3.53,1.66,5.29,2.49c0.52,0.25,1.59,0.13,1.33,0.92
			c-0.16,0.48-1.21,0.12-1.78-0.14c-2.11-0.97-4.19-1.99-6.27-3.03c-5.09-2.57-10.26-3.03-15.59-0.74c-0.46,0.2-1.19,0.86-1.42,0.39
			c-0.35-0.73,0.63-0.97,1.13-1.25C47.46,28.47,49.68,27.85,52.82,27.93z"/>
		<path d="M64,26.44c-5.73-2.22-11.58-3.2-17.67-1.79c-0.29,0.07-0.74,0.38-0.84-0.16c-0.03-0.13,0.52-0.43,0.84-0.56
			c2.19-0.91,4.51-1.2,6.81-0.88c3.78,0.53,7.74,0.61,10.8,3.44L64,26.44z"/>
		<path d="M98.15,39.95c1.01,0.85,1.6,2.28,3.19,2.35l0.02,0.02c3.08,2.7,2.5,6.29,2.35,9.77c-0.01,0.19-0.19,0.37-0.29,0.55
			c-0.1-0.24-0.25-0.48-0.28-0.74c-0.12-0.92-0.22-1.84-0.28-2.76c-0.17-2.79-0.97-5.25-3.39-6.95
			C98.72,41.67,97.94,41.08,98.15,39.95C98.16,39.95,98.15,39.95,98.15,39.95z"/>
		<path d="M63.94,26.48c3.3,0.15,5.77,2.26,8.55,3.64c0.18,0.09,0.25,0.42,0.38,0.63c-0.34-0.06-0.72-0.03-1.01-0.18
			c-2.62-1.37-5.23-2.76-7.85-4.14C64,26.44,63.94,26.48,63.94,26.48z"/>
		<path d="M93.39,72.47c0.79,2.36,1.61,4.72,2.36,7.09c0.12,0.39,0.25,1.09-0.28,1.18c-0.57,0.11-0.61-0.63-0.67-1.02
			c-0.4-2.45-1.59-4.74-1.38-7.3C93.44,72.41,93.39,72.47,93.39,72.47z"/>
		<path d="M48.18,7.16c2.83,0.95,5.6,2.04,7.84,4.11c0.22,0.21,0.28,0.6,0.41,0.9c-0.24-0.07-0.53-0.08-0.72-0.22
			c-2.35-1.82-5.26-2.78-7.46-4.83L48.18,7.16z"/>
		<path d="M58.69,11.09C56.02,9.54,54.25,7.01,52,5.02c0,0-0.07,0.07-0.07,0.07c2.99,1.19,5.1,3.34,6.69,6.07L58.69,11.09z"/>
		<path d="M46.69,13.75c-0.14,0.64-0.53,0.3-0.8,0.19c-0.76-0.31-1.52-0.63-2.26-0.99c-0.83-0.4-1.76-0.67-2.32-1.5
			c0.97,0.22,1.97,0.36,2.9,0.7C45.14,12.48,46.09,12.87,46.69,13.75z"/>
		<path d="M104.31,38.7c-0.05,0.17-0.12,0.43-0.19,0.69c-0.17-0.2-0.37-0.38-0.5-0.61c-0.14-0.24-0.25-0.5-0.33-0.76
			c-0.43-1.38-1.41-2.58-1.38-4.12c0.15,0.04,0.39,0.03,0.44,0.12C103.21,35.45,103.97,36.93,104.31,38.7z"/>
		<path d="M82.25,32.03c1.2,0.58,2.12,1.47,2.68,2.69c0.07,0.15-0.16,0.43-0.26,0.66c-0.23-0.12-0.54-0.18-0.69-0.36
			c-0.77-0.95-1.51-1.93-2.25-2.9C81.89,32.09,82.06,32.06,82.25,32.03z"/>
		<path d="M57.33,5.75c1.86,0.61,2.46,2.26,3.16,3.83c0.03,0.08-0.15,0.26-0.24,0.39c-1.21-1.25-2.16-2.67-2.85-4.26L57.33,5.75z"/>
		<path d="M45.82,10.5c0.29-0.07,0.54-0.23,0.71-0.17c1.01,0.4,2.07,0.74,2.59,1.84c-0.25,0.02-0.55,0.14-0.74,0.04
			C47.52,11.73,46.48,11.52,45.82,10.5z"/>
		<path d="M44.48,14.8c-0.22,0.55-0.49,0.43-0.73,0.35c-0.6-0.2-1.21-0.41-1.8-0.64c-0.53-0.2-1.56-0.08-1.38-0.79
			c0.11-0.45,1.16-0.02,1.74,0.17C43.06,14.12,43.77,14.49,44.48,14.8z"/>
		<path d="M33.43,14.56c-0.37-0.15-0.88,0.17-1.15-0.33c0.61-0.18,1.21-0.4,1.84-0.51c0.32-0.05,0.68,0.11,1.02,0.18
			C34.78,14.65,34.04,14.42,33.43,14.56z"/>
		<path d="M22.22,54.76c-0.49-0.95-0.52-1.95-0.25-2.96c0.03-0.1,0.41-0.19,0.41-0.19c0.51,1.11,0.03,2.16-0.22,3.22L22.22,54.76z"
			/>
		<path d="M80.9,39.79c-0.3-0.56-0.83-1.1-0.86-1.68c-0.05-0.81-1.43-1.74-0.45-2.14c0.63-0.25,0.89,1.36,1.1,2.23
			c0.13,0.53,0.11,1.1,0.15,1.65C80.84,39.86,80.9,39.79,80.9,39.79z"/>
		<path d="M49.9,9.89c0.17,0.08,0.35,0.14,0.5,0.25c0.65,0.5,1.49,0.77,1.86,1.59c0,0.01-0.3,0.22-0.37,0.18
			c-0.83-0.5-2-0.7-1.91-2.05C49.96,9.87,49.9,9.89,49.9,9.89z"/>
		<path d="M82.38,28.83c0.06,0.07,0.11,0.15,0.18,0.21c0.52,0.5,1.05,1.01,1.57,1.51c-0.12,0.07-0.29,0.24-0.35,0.21
			c-0.78-0.42-1.26-1.06-1.36-1.96L82.38,28.83z"/>
		<path d="M62.35,67.34c-0.04,0.1-0.06,0.32-0.17,0.37c-0.14,0.07-0.11-0.13-0.1-0.21c0.02-0.15-0.03-0.37,0.14-0.43
			C62.38,67.02,62.34,67.19,62.35,67.34z"/>
		<path d="M65.01,4.38c0.01-0.09,0.04-0.18,0.03-0.27c-0.14-0.94-0.28-1.88-0.43-2.81c0.14,0.05,0.41,0.1,0.41,0.15
			C65.04,2.43,65.02,3.41,65.01,4.38C65.02,4.39,65.01,4.38,65.01,4.38z"/>
		<path d="M100.48,18.35c-0.38-0.34-0.75-0.68-1.13-1.02c0.09-0.07,0.18-0.14,0.27-0.22c0.27,0.43,0.54,0.87,0.8,1.3
			C100.42,18.41,100.48,18.35,100.48,18.35z"/>
		<path d="M45.93,8.6c-0.07-0.06-0.13-0.13-0.21-0.17c-0.4-0.2-0.81-0.39-1.22-0.59c0.05-0.08,0.11-0.17,0.16-0.25
			c0.41,0.33,0.82,0.65,1.24,0.98C45.9,8.58,45.93,8.6,45.93,8.6z"/>
		<path d="M74.95,35.56c-0.09-0.04-0.17-0.08-0.26-0.11c-0.52-0.18-1.04-0.36-1.56-0.53c0.08-0.04,0.16-0.11,0.24-0.12
			c0.69-0.1,1.31-0.03,1.56,0.77C74.93,35.56,74.95,35.56,74.95,35.56z"/>
		<path d="M102.36,26.06c-1.08,0.15-1.46-0.63-1.83-1.41l-0.06,0.06c0.94,0.04,1.36,0.76,1.84,1.4
			C102.31,26.12,102.36,26.06,102.36,26.06z"/>
		<path d="M81.65,3.13c-0.26,0.81-1.04,1.08-1.63,1.55l0.06,0.04c0.07-0.99,1.08-1.04,1.59-1.6L81.65,3.13z"/>
		<path d="M28.12,8.59c-0.03-0.64,0.37-0.92,0.91-1.07c0.06-0.02,0.15,0.06,0.22,0.1c-0.39,0.31-0.79,0.63-1.19,0.94
			C28.05,8.55,28.12,8.59,28.12,8.59z"/>
		<path d="M44.77,21.09c-0.07-0.07-0.14-0.15-0.2-0.22c0.08-0.02,0.17-0.06,0.25-0.04c0.15,0.03,0.3,0.1,0.45,0.15
			C45.1,21.02,44.93,21.06,44.77,21.09z"/>
		<path d="M74.93,35.56c0.34-0.1,0.68-0.27,1.03-0.29c0.37-0.02,0.85-0.31,1.1,0.25c-0.34,0.02-0.68,0.07-1.01,0.07
			c-0.36,0-0.71-0.03-1.08-0.04C74.95,35.56,74.93,35.56,74.93,35.56z"/>
		<path d="M82.43,28.8c-0.36,0.05-0.72,0.17-1.06,0.11c-0.31-0.05-0.58-0.31-0.87-0.47c0.48-0.64,0.72,0.13,1.08,0.19
			c0.26,0.04,0.52,0.14,0.79,0.2C82.38,28.83,82.43,28.8,82.43,28.8z"/>
		<path d="M21.18,29.98c-0.09-0.01-0.18-0.02-0.27-0.03c0.1-0.08,0.2-0.18,0.32-0.24c0.03-0.02,0.13,0.1,0.19,0.15
			C21.34,29.91,21.26,29.95,21.18,29.98z"/>
		<path d="M96.73,14.46c0.26,0.22,0.52,0.43,0.78,0.66c0,0-0.08,0.11-0.12,0.16c-0.19-0.27-0.39-0.55-0.58-0.82
			C96.8,14.47,96.73,14.46,96.73,14.46z"/>
		<path d="M25.93,9.51c0.76-0.24,1.22-1.17,2.19-0.92c0.01,0.01-0.06-0.04-0.05-0.03c-0.67,0.35-1.26,0.88-2.09,0.84L25.93,9.51z"/>
		<path d="M50.57,3.68c0.45,0.47,0.91,0.94,1.36,1.4c0,0,0.07-0.07,0.07-0.07c-0.78-0.09-1.29-0.47-1.41-1.29L50.57,3.68z"/>
		<path d="M103.35,27.88c-0.73-0.38-1.28-0.86-0.99-1.81c0.01-0.01-0.05,0.06-0.04,0.05c0.32,0.6,0.64,1.21,0.95,1.83L103.35,27.88z
			"/>
		<path d="M62.23,7.53c-0.85-0.16-1.32-0.61-1.17-1.53l-0.06,0c0.4,0.52,0.81,1.03,1.2,1.56C62.19,7.58,62.23,7.53,62.23,7.53z"/>
		<path d="M58.62,11.15c0.16,0.18,0.31,0.35,0.47,0.53c-0.11,0.04-0.23,0.08-0.34,0.13c-0.02-0.24-0.04-0.48-0.06-0.72
			C58.69,11.09,58.62,11.15,58.62,11.15z"/>
		<polygon points="31.02,11.38 30.97,11.55 30.8,11.45 		"/>
		<path d="M81.67,3.13c0.32,0.01,0.65,0.02,0.97,0.03c-0.33-0.01-0.65-0.02-0.98-0.03C81.65,3.13,81.67,3.13,81.67,3.13z"/>
		<path d="M33.32,10.86c0,0.05,0.01,0.1,0.01,0.14c-0.07,0-0.14,0.01-0.21,0c-0.01,0-0.01-0.09-0.01-0.14
			C33.18,10.86,33.25,10.86,33.32,10.86z"/>
		<path d="M99.99,23.89c-0.17,0-0.37,0.05-0.5-0.02c-0.21-0.11-0.16-0.29,0.08-0.25c0.14,0.02,0.25,0.22,0.37,0.33
			C99.94,23.96,99.99,23.89,99.99,23.89z"/>
		<polygon points="41.43,9.18 41.68,9.25 41.48,9.34 		"/>
		<path d="M77.85,31.33c0.07,0.12,0.14,0.23,0.21,0.35c-0.07,0.03-0.2,0.11-0.21,0.1c-0.09-0.1-0.15-0.22-0.22-0.34
			C77.7,31.4,77.78,31.36,77.85,31.33z"/>
		<path d="M29.87,23.2c-0.33,0.07-0.66,0.13-0.99,0.19c-0.01,0-0.05-0.13-0.07-0.19c0.33,0.02,0.66,0.04,1.01,0.05
			C29.83,23.23,29.87,23.2,29.87,23.2z"/>
		<path d="M72.65,8.96c0.1-0.15,0.16-0.36,0.3-0.43c0.22-0.12,0.33,0.03,0.15,0.2c-0.12,0.11-0.33,0.12-0.5,0.17
			C72.59,8.9,72.65,8.96,72.65,8.96z"/>
		<path d="M53.48,20.93c-0.06,0.04-0.12,0.11-0.17,0.11c-0.06,0-0.11-0.07-0.17-0.11c0.06-0.04,0.12-0.11,0.17-0.11
			C53.36,20.81,53.42,20.89,53.48,20.93z"/>
		<path d="M95.6,39.97c0.85-0.01,1.7-0.01,2.55-0.02c0,0,0.01,0,0.01,0c-0.84,0-1.67,0.01-2.52,0.02
			C95.63,39.97,95.6,39.97,95.6,39.97z"/>
		<path d="M69.48,0.42c-0.1-0.01-0.21-0.01-0.31-0.02c0.01,0.07,0.02,0.13,0.03,0.2c0.08-0.05,0.16-0.11,0.25-0.16
			C69.44,0.44,69.48,0.42,69.48,0.42z"/>
		<path d="M78.24,4.68c-0.07,0.11-0.13,0.21-0.2,0.32c0.08,0.02,0.16,0.04,0.24,0.05c-0.01-0.12-0.03-0.24-0.02-0.35
			C78.27,4.71,78.24,4.68,78.24,4.68z"/>
		<path d="M101.34,42.31c0.03-0.15,0.07-0.3,0.1-0.45c-0.03,0.15-0.05,0.31-0.08,0.46C101.36,42.32,101.34,42.31,101.34,42.31z"/>
		<path d="M101.3,20.59c0.35,0.12,0.7,0.24,1.05,0.35l-0.03-0.03c-0.34-0.11-0.68-0.22-1.02-0.34
			C101.31,20.57,101.3,20.59,101.3,20.59z"/>
		<path d="M102.35,20.95c-0.03,0.12-0.05,0.24-0.08,0.36c0.02-0.06,0.06-0.11,0.06-0.17c0.01-0.07-0.01-0.14-0.01-0.22
			C102.32,20.92,102.35,20.95,102.35,20.95z"/>
		<path d="M48.25,7.13c-0.48,0.05-0.89-0.06-1.19-0.47l-0.08,0c0.39,0.17,0.78,0.35,1.19,0.51C48.18,7.16,48.25,7.13,48.25,7.13z"/>
		<path d="M101.26,18.94c0.02,0.54,0.03,1.09,0.05,1.64c0,0.01,0-0.02,0,0c0.01-0.54,0.02-1.1,0.03-1.66L101.26,18.94z"/>
		<path d="M62.41,9c-0.36-0.44-0.49-0.92-0.18-1.46c0.01-0.01-0.03,0.04-0.02,0.02c0.06,0.49,0.1,1,0.15,1.5
			C62.35,9.07,62.41,9,62.41,9z"/>
		<path d="M80.02,4.68c-0.58,0.25-1.17,0.35-1.77,0.01c-0.01-0.01,0.02,0.02,0,0.01c0.59,0,1.2,0.01,1.81,0.02
			C80.08,4.72,80.02,4.68,80.02,4.68z"/>
		<polygon points="22.3,23.18 22.3,23.33 22.12,23.26 		"/>
		<path d="M50.59,3.73c-0.09-0.01-0.18-0.02-0.27-0.03c0.08,0,0.16-0.01,0.24-0.01C50.57,3.68,50.59,3.73,50.59,3.73z"/>
		<path d="M30.85,29.5c0.06,0.05,0.12,0.11,0.18,0.16c-0.04-0.07-0.08-0.13-0.12-0.2L30.85,29.5z"/>
		<path d="M47.24,9.07c-0.43-0.16-0.86-0.31-1.3-0.47c-0.01,0-0.04-0.02-0.04-0.02c0.42,0.18,0.84,0.36,1.26,0.53
			C47.17,9.11,47.24,9.07,47.24,9.07z"/>
		<path d="M48.15,9.79c-0.3-0.24-0.59-0.49-0.9-0.73c-0.01,0.01-0.08,0.05-0.09,0.05c0.5-0.03,0.79,0.23,0.95,0.68
			C48.11,9.79,48.15,9.79,48.15,9.79z"/>
		<path d="M80.64,77.35c0.09,0.46,0.18,0.92,0.28,1.38l0-0.07c-0.5-0.36-0.42-0.84-0.27-1.35C80.66,77.31,80.64,77.35,80.64,77.35z"
			/>
		<path d="M48.11,9.79c0.59,0.04,1.18,0.08,1.78,0.11c0.01-0.01,0.07-0.03,0.08-0.03c-0.59-0.03-1.19-0.06-1.81-0.08
			C48.15,9.79,48.11,9.79,48.11,9.79z"/>
		<path d="M30.91,29.47c-0.5,0.09-0.84-0.17-1.12-0.54l-0.05-0.01c0.37,0.2,0.73,0.4,1.11,0.59C30.85,29.5,30.91,29.47,30.91,29.47z
			"/>
		<path d="M69.44,0.44C69.42,0.29,69.41,0.15,69.4,0c-0.02,0.07-0.06,0.14-0.04,0.19c0.02,0.08,0.08,0.15,0.12,0.23
			C69.48,0.42,69.44,0.44,69.44,0.44z"/>
		<path d="M66.23,24.77c-0.05-0.05-0.1-0.11-0.15-0.16c0.03,0.05,0.06,0.1,0.09,0.16L66.23,24.77z"/>
		<polygon points="38.44,10.83 38.61,10.93 38.42,10.99 		"/>
		<path d="M23.75,58.73c-0.07-0.23-0.12-0.28-0.09,0.02C23.67,58.74,23.75,58.73,23.75,58.73z"/>
		<path d="M24.62,59.28c-0.29-0.19-0.57-0.37-0.86-0.56c-0.01,0-0.09,0.02-0.09,0.02c0.29,0.2,0.6,0.39,0.9,0.59
			C24.57,59.33,24.62,59.28,24.62,59.28z"/>
		<path d="M22.16,54.84c0,0,0.07-0.08,0.07-0.08C22.22,54.76,22.16,54.84,22.16,54.84z"/>
		<path d="M94.85,13.68c-0.02-0.05,0.11-0.42-0.1-0.05L94.85,13.68z"/>
		<path d="M94.75,13.63c0.06-0.01,0.11-0.02,0.17-0.04c-0.02,0.03-0.05,0.05-0.07,0.08C94.85,13.68,94.75,13.63,94.75,13.63z"/>
		<path d="M25.97,9.39c0.02,0.06,0.04,0.11,0.06,0.17C26,9.54,25.96,9.52,25.93,9.5C25.93,9.51,25.97,9.39,25.97,9.39z"/>
		<path d="M42.94,74.83c-0.21,0.21-0.41,0.42-0.62,0.62c0,0,0.06,0.05,0.06,0.05c0.2-0.2,0.4-0.4,0.6-0.59L42.94,74.83z"/>
		<path d="M96.8,14.47l-0.19,0.06c0,0,0.11-0.06,0.12-0.06C96.73,14.46,96.8,14.47,96.8,14.47z"/>
		<path d="M80.91,78.73l0.07,0.12c0,0-0.06-0.17-0.06-0.17C80.92,78.67,80.91,78.73,80.91,78.73z"/>
		<path d="M71.98,9.63c0.22-0.22,0.45-0.45,0.67-0.67c0,0-0.06-0.06-0.06-0.06c-0.22,0.22-0.45,0.45-0.67,0.67
			C71.92,9.57,71.98,9.63,71.98,9.63z"/>
		<path d="M62.35,9.07l0.14-0.05c0,0-0.07-0.03-0.08-0.02C62.41,9,62.35,9.07,62.35,9.07z"/>
		<path d="M100.9,83.45c0.03,0.06,0.07,0.11,0.1,0.17c-0.02-0.06-0.04-0.13-0.07-0.19C100.92,83.43,100.9,83.45,100.9,83.45z"/>
		<path d="M100.17,84.26c0.45-0.07,0.71-0.31,0.72-0.8c0-0.01,0.03-0.03,0.03-0.03c-0.26,0.28-0.52,0.57-0.8,0.85
			C100.12,84.28,100.17,84.26,100.17,84.26z"/>
		<path d="M101.34,18.92c-0.29-0.19-0.57-0.38-0.86-0.57c0,0-0.06,0.06-0.06,0.06c0.27,0.18,0.55,0.36,0.83,0.54
			C101.26,18.94,101.34,18.92,101.34,18.92z"/>
		<path d="M22.21,45.87l0.07,0.07L22.21,45.87z"/>
		<path d="M100.53,24.65c-0.18-0.25-0.36-0.5-0.54-0.76c0,0-0.05,0.07-0.05,0.06c0.18,0.25,0.36,0.5,0.53,0.76
			C100.47,24.72,100.53,24.65,100.53,24.65z"/>
		<path d="M22.28,45.94c0.21-0.17,0.43-0.35,0.64-0.52l-0.08-0.06c-0.21,0.17-0.42,0.34-0.63,0.51
			C22.21,45.87,22.28,45.94,22.28,45.94z"/>
		<path d="M22.91,45.41l-0.04-0.15c0,0-0.04,0.08-0.04,0.08S22.91,45.41,22.91,45.41z"/>
		<path d="M47.06,6.66l-0.19,0.05c0,0,0.1-0.05,0.11-0.05C46.98,6.66,47.06,6.66,47.06,6.66z"/>
		<path d="M66.17,24.76l0.2-0.12c0,0-0.12,0.11-0.13,0.12S66.17,24.76,66.17,24.76z"/>
		<path d="M61.06,6.01l-0.21,0.12c0,0,0.13-0.11,0.14-0.11C61,6.01,61.06,6.01,61.06,6.01z"/>
		<polygon points="20.76,37.62 20.59,37.63 20.71,37.69 		"/>
		<path d="M20.71,37.69l-0.03-0.2c0,0,0.08,0.13,0.09,0.13C20.76,37.62,20.71,37.69,20.71,37.69z"/>
		<path d="M57.41,5.71l0.02-0.12c0,0-0.09,0.16-0.09,0.16C57.33,5.75,57.41,5.71,57.41,5.71z"/>
		<path d="M99.47,30.56c0.03,0.02,0.06,0.04,0.09,0.06L99.47,30.56z"/>
		<path d="M99.55,30.62l-0.18,0.07c0,0,0.1-0.12,0.1-0.12C99.47,30.56,99.55,30.62,99.55,30.62z"/>
		<path d="M29.79,28.93l-0.19,0.12c0,0,0.13-0.12,0.13-0.12S29.79,28.93,29.79,28.93z"/>
		<polygon points="103.27,27.94 103.35,28.05 103.34,27.88 		"/>
		<path d="M59.07,103.83c-0.19,0.7-0.54,1.41-1.4,1.34c-0.96-0.09-1.05-0.9-0.88-1.66c0.17-0.75,0.59-1.45,1.48-1.26
			C58.98,102.4,59.15,103.07,59.07,103.83z"/>
		<path d="M58.56,111.32c-0.04,0.81-0.29,1.51-1.22,1.44c-0.66-0.05-1.23-0.47-1.18-1.24c0.06-0.79,0.56-1.41,1.33-1.49
			C58.29,109.94,58.45,110.67,58.56,111.32z"/>
		<path d="M51.91,107.6c0.46,0.76,0.98,1.52,1.39,2.33c0.23,0.46,0.4,1.02,0.37,1.52c-0.01,0.24-0.45,0.04-0.57-0.2
			c-0.47-0.99-0.92-1.99-1.37-2.99C51.63,108.04,51.43,107.8,51.91,107.6z"/>
		<path d="M57.61,52.7l-0.11-0.11c0,0,0.16,0.12,0.16,0.13C57.67,52.72,57.61,52.7,57.61,52.7z"/>
		<path d="M70.56,52.75l0.19-0.09c0,0-0.14,0.11-0.14,0.12C70.61,52.78,70.56,52.75,70.56,52.75z"/>
		<polygon points="73.78,52.7 73.67,52.63 73.86,52.64 		"/>
		<path d="M63.81,90.93c0.08,0.05,0.15,0.09,0.23,0.14c0.53,0.3,1.07,0.6,1.6,0.89c-0.07,0.12-0.17,0.36-0.22,0.35
			c-0.75-0.17-1.21-0.69-1.56-1.34L63.81,90.93z"/>
		<polygon points="63.87,90.97 63.67,91.03 63.81,90.93 		"/>
		<path d="M49.71,92.23c-1.01,0-2.03-0.01-2.92-0.6C47.77,91.81,48.81,91.67,49.71,92.23z"/>
		<path d="M46.91,91.69c-0.41-0.21-0.83-0.42-1.24-0.62C46.09,91.27,46.5,91.48,46.91,91.69z"/>
		<path d="M45.79,91.13c-0.41-0.21-0.83-0.42-1.24-0.63C44.97,90.71,45.38,90.92,45.79,91.13z"/>
		<path d="M44.68,90.57c-0.41-0.21-0.83-0.42-1.24-0.63C43.85,90.16,44.26,90.37,44.68,90.57z"/>
	</g>
</g>
<path class="st0" d="M21.13,45.78c0,0,2.12-2.45,5.96-2.1c3.84,0.35,5.86,1.97,6.47,3.18C30.73,45.5,25.88,42.38,21.13,45.78z"/>
<path class="st0" d="M33,44.21c0,0-3.59-4.32-12.13-2.04C26.08,42.37,29.16,41.91,33,44.21z"/>
<path d="M32.32,43.16c0,0-3.04-5.12-9.36-4.83C27.1,37.29,31.81,40.11,32.32,43.16z"/>
<path d="M33.27,41.51c0,0-4.9-8.92-17.12-8.08C17.76,32.24,29.95,31.54,33.27,41.51z"/>
<path d="M33.27,36.52c0,0-6.09-10.47-17.43-7.34C19.24,27.11,26.09,25.57,33.27,36.52z"/>
<path d="M15.84,28.31c0,0,9.97-8.71,17.72,4.46C30.54,29.5,24.86,22.97,15.84,28.31z"/>
<path d="M33.27,29.12c0,0-4.92-5.5-12.1-3.41C22.33,23.88,30.02,22.99,33.27,29.12z"/>
</svg>
